<svg xmlns="http://www.w3.org/2000/svg"  viewBox="0 0 48 48" width="48px" height="48px"><circle cx="28" cy="28" r="18" fill="#8ce7f2"/><path fill="none" stroke="#18193f" stroke-linecap="round" stroke-linejoin="round" stroke-width="3" d="M42.2,27.2c-1.5,8.7-9.1,15.3-18.2,15.3C13.8,42.5,5.5,34.2,5.5,24S13.8,5.5,24,5.5c7,0,13.1,3.9,16.2,9.6"/><path fill="none" stroke="#18193f" stroke-linecap="round" stroke-linejoin="round" stroke-width="3" d="M16.8,14.2C18.3,9,21,5.5,24,5.5c4.7,0,8.5,8.3,8.5,18.5S28.7,42.5,24,42.5s-8.5-8.3-8.5-18.5c0-0.5,0-1,0-1.6"/><line x1="13.2" x2="35.4" y1="17.5" y2="17.5" fill="none" stroke="#18193f" stroke-linecap="round" stroke-linejoin="round" stroke-width="3"/><line x1="11.1" x2="36.5" y1="30.5" y2="30.5" fill="none" stroke="#18193f" stroke-linecap="round" stroke-linejoin="round" stroke-width="3"/></svg>