<svg xmlns="http://www.w3.org/2000/svg"  viewBox="0 0 48 48" width="48px" height="48px"><path fill="#90caf9" d="M41.152,42H14.848C12.171,42,10,39.829,10,37.152V18.848C10,16.171,12.171,14,14.848,14h26.304	C43.829,14,46,16.171,46,18.848v18.304C46,39.829,43.829,42,41.152,42z"/><path fill="none" stroke="#18193f" stroke-linecap="round" stroke-linejoin="round" stroke-miterlimit="10" stroke-width="3" d="M28.404,38.5H10.5c-2.761,0-5-2.239-5-5v-19c0-2.761,2.239-5,5-5h1.755"/><path fill="none" stroke="#18193f" stroke-linecap="round" stroke-linejoin="round" stroke-miterlimit="10" stroke-width="3" d="M19.34,9.5H37.5c2.761,0,5,2.239,5,5v19c0,2.761-2.239,5-5,5h-2.968"/><path fill="none" stroke="#18193f" stroke-linecap="round" stroke-linejoin="round" stroke-miterlimit="10" stroke-width="3" d="M10.82,19.376l12.229,6.61c0.593,0.321,1.309,0.321,1.902,0L42.5,16.5"/></svg>